<?xml version="1.0"?>
<svg width="400" height="400" xmlns="http://www.w3.org/2000/svg" xmlns:svg="http://www.w3.org/2000/svg">
 <!-- Created with SVG-edit - https://github.com/SVG-Edit/svgedit-->
 <g class="layer">
  <title>Layer 1</title>
  <polyline fill="none" id="svg_2" opacity="0.5" points="148.5,141 146.44000244140625,141.2866668701172 145.76000213623047,141.44666290283203 144.95999908447266,141.64666748046875 144.04000091552734,141.88666534423828 143,142.16666412353516 141.84933471679688,142.482666015625 141.24649810791016,142.6481704711914 140.6346664428711,142.81466674804688 140.02083587646484,142.97916412353516 138.81517028808594,143.29016876220703 138.23733520507812,143.4306640625 136.68616485595703,143.75716400146484 136.24266815185547,143.8306655883789 135.10416412353516,143.97916412353516 134.47516632080078,144.04816436767578 133.42150115966797,144.2213363647461 132.52083587646484,144.5 131.90133666992188,144.71600341796875 130.9000015258789,144.94283294677734 130.0999984741211,144.99549865722656 129.0999984741211,145.00133514404297 128.3000030517578,145.03600311279297 127.30000305175781,145.22183227539062 126.5,145.5625 125.9000015258789,145.9720001220703 125.0999984741211,146.76799774169922 124.69999694824219,147.25066375732422 124.0999984741211,147.99466705322266 123.30000305175781,148.8568344116211 122.69999694824219,149.3173370361328 122.0999984741211,149.6338348388672 121.10266876220703,149.91600036621094 120.2143325805664,150.05266571044922 119.52133178710938,150.61066436767578 119.5,151.5 119.48933410644531,152.4000015258789 119.21600341796875,153.20266723632812 118.78399658203125,153.97066497802734 118.58533477783203,154.7693328857422 118.52083587646484,155.52083587646484 118.50133514404297,156.3173370361328 118.5,157.54283142089844 118.5,158.39550018310547 118.5,159.39999389648438 118.5,160.1999969482422 118.5,161.20016479492188 118.5,161.8106689453125 118.5,162.68533325195312 118.5,163.6840057373047 118.5,164.5 118.5,165.3159942626953 118.5,166.31333923339844 118.5,167.15333557128906 118.5,168.24732971191406 118.5,169.1666717529297 118.5,169.83599853515625 118.5,171 118.5,171.78933715820312 118.5,172.51466369628906 118.54166412353516,173.4791717529297 119.06800079345703,174.2013397216797 119.64933013916016,174.63600158691406 120.32933044433594,175.48399353027344 120.47866821289062,176.17466735839844 120.50450134277344,177.24282836914062 120.7213363647461,178.1001739501953 121.14733123779297,178.75717163085938 " stroke="#000000" stroke-linecap="round"/>
  <path d="m92.5,129c1.77,0.28 2.53,0.53 3.4,0.72c0.89,0.19 1.8,0.24 2.7,0.34c0.9,0.1 1.8,0.26 2.63,0.56c0.96,0.34 1.58,0.83 2.44,1.39c0.65,0.42 1.43,0.76 2.23,0.92c0.94,0.19 1.81,0.52 2.49,0.8c0.9,0.37 2,0.37 2.6,0.8c0.8,0.58 1.52,0.92 2.16,1.59c0.57,0.59 0.36,1.72 0.36,2.43c0,0.96 0,1.83 0,2.54c0,0.79 0,2.08 0,3c0,0.47 0,1.4 0,2.31c0,1.28 -0.02,2.04 0.02,2.72c0.06,0.87 0.58,1.9 0.98,2.41c0.73,0.93 0.87,1.53 0.96,2.48c0.06,0.64 0.04,1.94 0.04,2.8c0,0.9 0,1.72 0,2.69c0,0.73 0,1.71 0,2.49c0,1 0,1.83 0,2.79c0,0.73 0,1.9 0,2.73c0,0.83 0,1.76 0,2.55c0,1.03 0,1.7 0,2.78c0,0.79 0,1.82 0,2.51c0.01,1.02 0.31,1.84 0.8,2.54c0.52,0.75 0.73,1.51 1.15,2.35c0.38,0.79 1.08,1.34 1.76,1.76l0.9,0" fill="none" id="svg_3" stroke="#000000"/>
  <path d="m139.5,123c-1.07,1.31 -1.85,1.67 -2.4,2.06c-0.94,0.65 -1.51,1.31 -2.14,2.01c-0.33,0.37 -1.01,1.16 -1.79,1.94c-0.82,0.82 -1.27,1.2 -1.72,1.59c-0.89,0.78 -1.35,1.15 -1.78,1.53c-1.23,1.06 -1.96,1.73 -2.29,2.07c-0.64,0.66 -1.22,1.36 -1.72,2.15c-0.51,0.82 -0.93,1.72 -1.15,2.17c-0.42,0.89 -1.01,2.17 -1.42,2.93c-0.2,0.36 -0.61,1.06 -1,1.77c-0.62,1.12 -1.01,1.96 -1.39,2.85c-0.19,0.45 -0.56,1.34 -1.04,2.62c-0.29,0.76 -0.54,1.45 -0.72,2.08c-0.31,1.08 -0.42,2.04 -0.44,2.77c-0.03,1.13 0,1.79 0,2.8c0,0.63 0,1.82 0,2.69c0,0.76 0,1.66 0,2.6c0,1.01 0,1.67 0,2.73c0,0.97 -0.02,1.66 0.11,2.3c0.23,1.12 0.97,1.76 1.72,2.53c0.44,0.45 0.95,1.15 1.13,2.21c0.16,0.93 0.04,1.65 0.04,2.63c0,0.8 0,1.6 0,2.6c0,0.92 -0.04,1.88 -0.57,2.61l-0.58,0.43" fill="none" id="svg_4" stroke="#000000"/>
  <polyline fill="none" id="svg_8" opacity="0.5" points="323.5,165 321.44000244140625,165.28700256347656 320.760009765625,165.44699096679688 319.96002197265625,165.64700317382812 319.03997802734375,165.8870086669922 318,166.1669921875 316.84930419921875,166.48300170898438 316.24652099609375,166.64801025390625 315.63470458984375,166.81500244140625 315.02081298828125,166.97900390625 313.815185546875,167.29000854492188 313.2373046875,167.43099975585938 311.68621826171875,167.7570037841797 311.24267578125,167.83099365234375 310.10418701171875,167.97900390625 309.4752197265625,168.04800415039062 308.4215087890625,168.22100830078125 307.52081298828125,168.5 306.90130615234375,168.71600341796875 305.9000244140625,168.94300842285156 305.0999755859375,168.99501037597656 304.0999755859375,169.00100708007812 303.29998779296875,169.0360107421875 302.29998779296875,169.2220001220703 301.5,169.56300354003906 300.9000244140625,169.9720001220703 300.0999755859375,170.76800537109375 299.70001220703125,171.25100708007812 299.0999755859375,171.99501037597656 298.29998779296875,172.8570098876953 297.70001220703125,173.31700134277344 297.0999755859375,173.63400268554688 296.10272216796875,173.91600036621094 295.21429443359375,174.05300903320312 294.52130126953125,174.61099243164062 294.5,175.5 294.48931884765625,176.40000915527344 294.21600341796875,177.2030029296875 293.78399658203125,177.97100830078125 293.5853271484375,178.7689971923828 293.52081298828125,179.52099609375 293.50128173828125,180.31700134277344 293.5,181.54299926757812 293.5,182.39601135253906 293.5,183.39999389648438 293.5,184.1999969482422 293.5,185.1999969482422 293.5,185.81100463867188 293.5,186.68499755859375 293.5,187.6840057373047 293.5,188.5 293.5,189.3159942626953 293.5,190.31300354003906 293.5,191.1529998779297 293.5,192.2469940185547 293.5,193.16700744628906 293.5,193.83599853515625 293.5,195 293.5,195.78900146484375 293.5,196.51499938964844 293.54168701171875,197.47900390625 294.0679931640625,198.2010040283203 294.6492919921875,198.63600158691406 295.32928466796875,199.48399353027344 295.47869873046875,200.1750030517578 295.5045166015625,201.2429962158203 295.7213134765625,202.10000610351562 296.14727783203125,202.7570037841797 " stroke="#000000" stroke-linecap="round"/>
  <path d="m267.5,153c1.77,0.28 2.53,0.53 3.4,0.72c0.89,0.19 1.8,0.24 2.7,0.34c0.9,0.1 1.8,0.26 2.63,0.56c0.96,0.34 1.58,0.83 2.44,1.39c0.65,0.42 1.43,0.76 2.23,0.92c0.94,0.19 1.81,0.52 2.49,0.8c0.9,0.37 2,0.37 2.6,0.8c0.8,0.58 1.52,0.92 2.16,1.59c0.57,0.59 0.36,1.72 0.36,2.43c0,0.96 0,1.83 0,2.54c0,0.79 0,2.08 0,3c0,0.47 0,1.4 0,2.31c0,1.28 -0.02,2.04 0.02,2.72c0.06,0.87 0.58,1.9 0.98,2.41c0.73,0.93 0.87,1.53 0.96,2.48c0.06,0.64 0.04,1.94 0.04,2.8c0,0.9 0,1.72 0,2.69c0,0.73 0,1.71 0,2.49c0,1 0,1.83 0,2.79c0,0.73 0,1.9 0,2.73c0,0.83 0,1.76 0,2.55c0,1.03 0,1.7 0,2.78c0,0.79 0,1.82 0,2.51c0.01,1.02 0.31,1.84 0.8,2.54c0.52,0.75 0.73,1.51 1.15,2.35c0.38,0.79 1.08,1.34 1.76,1.76l0.9,0" fill="none" id="svg_7" stroke="#000000"/>
  <path d="m314.5,147c-1.07,1.31 -1.85,1.67 -2.4,2.06c-0.94,0.65 -1.51,1.31 -2.14,2.01c-0.33,0.37 -1.01,1.16 -1.79,1.94c-0.82,0.82 -1.27,1.2 -1.72,1.59c-0.89,0.78 -1.35,1.15 -1.78,1.53c-1.23,1.06 -1.96,1.73 -2.29,2.07c-0.64,0.66 -1.22,1.36 -1.72,2.15c-0.51,0.82 -0.93,1.72 -1.15,2.17c-0.42,0.89 -1.01,2.17 -1.42,2.93c-0.2,0.36 -0.61,1.06 -1,1.77c-0.62,1.12 -1.01,1.96 -1.39,2.85c-0.19,0.45 -0.56,1.34 -1.04,2.62c-0.29,0.76 -0.54,1.45 -0.72,2.08c-0.31,1.08 -0.42,2.04 -0.44,2.77c-0.03,1.13 0,1.79 0,2.8c0,0.63 0,1.82 0,2.69c0,0.76 0,1.66 0,2.6c0,1.01 0,1.67 0,2.73c0,0.97 -0.02,1.66 0.11,2.3c0.23,1.12 0.97,1.76 1.72,2.53c0.44,0.45 0.95,1.15 1.13,2.21c0.16,0.93 0.04,1.65 0.04,2.63c0,0.8 0,1.6 0,2.6c0,0.92 -0.04,1.88 -0.57,2.61l-0.58,0.43" fill="none" id="svg_6" stroke="#000000"/>
  <polyline fill="none" id="svg_11" opacity="0.5" points="175.5,291 173.44000244140625,291.28700256347656 172.760009765625,291.4469909667969 171.96002197265625,291.6470031738281 171.03997802734375,291.8870086669922 170,292.1669921875 168.84930419921875,292.4830017089844 168.24652099609375,292.64801025390625 167.63470458984375,292.81500244140625 167.02081298828125,292.97900390625 165.815185546875,293.2900085449219 165.2373046875,293.4309997558594 163.68621826171875,293.7570037841797 163.24267578125,293.83099365234375 162.10418701171875,293.97900390625 161.4752197265625,294.0480041503906 160.4215087890625,294.22100830078125 159.52081298828125,294.5 158.90130615234375,294.71600341796875 157.9000244140625,294.94300842285156 157.0999755859375,294.99501037597656 156.0999755859375,295.0010070800781 155.29998779296875,295.0360107421875 154.29998779296875,295.2220001220703 153.5,295.56300354003906 152.9000244140625,295.9720001220703 152.0999755859375,296.76800537109375 151.70001220703125,297.2510070800781 151.0999755859375,297.99501037597656 150.29998779296875,298.8570098876953 149.70001220703125,299.31700134277344 149.0999755859375,299.6340026855469 148.10272216796875,299.91600036621094 147.21429443359375,300.0530090332031 146.52130126953125,300.6109924316406 146.5,301.5 146.48931884765625,302.40000915527344 146.21600341796875,303.2030029296875 145.78399658203125,303.97100830078125 145.5853271484375,304.7689971923828 145.52081298828125,305.52099609375 145.50128173828125,306.31700134277344 145.5,307.5429992675781 145.5,308.39601135253906 145.5,309.3999938964844 145.5,310.1999969482422 145.5,311.1999969482422 145.5,311.8110046386719 145.5,312.68499755859375 145.5,313.6840057373047 145.5,314.5 145.5,315.3159942626953 145.5,316.31300354003906 145.5,317.1529998779297 145.5,318.2469940185547 145.5,319.16700744628906 145.5,319.83599853515625 145.5,321 145.5,321.78900146484375 145.5,322.51499938964844 145.54168701171875,323.47900390625 146.0679931640625,324.2010040283203 146.6492919921875,324.63600158691406 147.32928466796875,325.48399353027344 147.47869873046875,326.1750030517578 147.5045166015625,327.2429962158203 147.7213134765625,328.1000061035156 148.14727783203125,328.7570037841797 " stroke="#000000" stroke-linecap="round"/>
  <path d="m119.5,279c1.77,0.28 2.53,0.53 3.4,0.72c0.89,0.19 1.8,0.24 2.7,0.34c0.9,0.1 1.8,0.26 2.63,0.56c0.96,0.34 1.58,0.83 2.44,1.39c0.65,0.42 1.43,0.76 2.23,0.92c0.94,0.19 1.81,0.52 2.49,0.8c0.9,0.37 2,0.37 2.6,0.8c0.8,0.58 1.52,0.92 2.16,1.59c0.57,0.59 0.36,1.72 0.36,2.43c0,0.96 0,1.83 0,2.54c0,0.79 0,2.08 0,3c0,0.47 0,1.4 0,2.31c0,1.28 -0.02,2.04 0.02,2.72c0.06,0.87 0.58,1.9 0.98,2.41c0.73,0.93 0.87,1.53 0.96,2.48c0.06,0.64 0.04,1.94 0.04,2.8c0,0.9 0,1.72 0,2.69c0,0.73 0,1.71 0,2.49c0,1 0,1.83 0,2.79c0,0.73 0,1.9 0,2.73c0,0.83 0,1.76 0,2.55c0,1.03 0,1.7 0,2.78c0,0.79 0,1.82 0,2.51c0.01,1.02 0.31,1.84 0.8,2.54c0.52,0.75 0.73,1.51 1.15,2.35c0.38,0.79 1.08,1.34 1.76,1.76l0.9,0" fill="none" id="svg_10" stroke="#000000"/>
  <path d="m166.5,273c-1.07,1.31 -1.85,1.67 -2.4,2.06c-0.94,0.65 -1.51,1.31 -2.14,2.01c-0.33,0.37 -1.01,1.16 -1.79,1.94c-0.82,0.82 -1.27,1.2 -1.72,1.59c-0.89,0.78 -1.35,1.15 -1.78,1.53c-1.23,1.06 -1.96,1.73 -2.29,2.07c-0.64,0.66 -1.22,1.36 -1.72,2.15c-0.51,0.82 -0.93,1.72 -1.15,2.17c-0.42,0.89 -1.01,2.17 -1.42,2.93c-0.2,0.36 -0.61,1.06 -1,1.77c-0.62,1.12 -1.01,1.96 -1.39,2.85c-0.19,0.45 -0.56,1.34 -1.04,2.62c-0.29,0.76 -0.54,1.45 -0.72,2.08c-0.31,1.08 -0.42,2.04 -0.44,2.77c-0.03,1.13 0,1.79 0,2.8c0,0.63 0,1.82 0,2.69c0,0.76 0,1.66 0,2.6c0,1.01 0,1.67 0,2.73c0,0.97 -0.02,1.66 0.11,2.3c0.23,1.12 0.97,1.76 1.72,2.53c0.44,0.45 0.95,1.15 1.13,2.21c0.16,0.93 0.04,1.65 0.04,2.63c0,0.8 0,1.6 0,2.6c0,0.92 -0.04,1.88 -0.57,2.61l-0.58,0.43" fill="none" id="svg_9" stroke="#000000"/>
 </g>
</svg>