<?xml version="1.0"?>
<svg width="400" height="400" xmlns="http://www.w3.org/2000/svg" xmlns:svg="http://www.w3.org/2000/svg">
 <!-- Created with SVG-edit - https://github.com/SVG-Edit/svgedit-->

 <g class="layer">
  <title>Layer 1</title>
  <path d="m138.4,199l0,-60.6l-16.8,27.6l16.8,-44l-16.2,12.4l23.4,-31.6l26.2,28.8l-21,-11.4l26.2,45.6l-26.8,-29l0,62l-11.8,0.2z" fill="none" id="svg_9" stroke="#000000"/>
  <path d="m278.6,319.6l0,-60.6l-16.8,27.6l16.8,-44l-16.2,12.4l23.4,-31.6l26.2,28.8l-21,-11.4l26.2,45.6l-26.8,-29l0,62l-11.8,0.2z" fill="none" id="svg_10" stroke="#000000"/>
  <path d="m128.6,333.6l0,-60.6l-16.8,27.6l16.8,-44l-16.2,12.4l23.4,-31.6l26.2,28.8l-21,-11.4l26.2,45.6l-26.8,-29l0,62l-11.8,0.2z" fill="none" id="svg_11" stroke="#000000"/>
 </g>
</svg>